<svg width="429" height="130" viewBox="0 0 429 130" fill="none" xmlns="http://www.w3.org/2000/svg">
<path d="M130.211 51.5508C130.211 47.6641 127.643 45.7207 122.506 45.7207C119.283 45.7207 116.022 46.6973 112.721 48.6504C111.764 49.2168 111.012 49.7441 110.465 50.2324C109.938 50.7012 109.43 50.9355 108.941 50.9355C108.453 50.9355 107.984 50.8184 107.535 50.584C107.086 50.3301 106.686 50.0176 106.334 49.6465C105.045 48.2207 105.182 46.8438 106.744 45.5156C109.088 43.5039 112.975 42.2051 118.404 41.6191C119.498 41.502 120.885 41.4434 122.565 41.4434C124.244 41.4434 126.012 41.7461 127.867 42.3516C129.742 42.957 131.315 43.7773 132.584 44.8125C135.123 46.9023 136.393 49.5684 136.393 52.8105C136.393 56.6582 134.635 60.1641 131.119 63.3281C128.072 66.1016 124.469 68.084 120.309 69.2754C121.441 70.2129 122.506 71.5605 123.502 73.3184L125.846 77.5078C127.897 81.3164 129.732 83.3867 131.354 83.7188C131.92 83.8164 132.506 83.7969 133.111 83.6602C133.717 83.5234 134.107 83.4648 134.283 83.4844C134.479 83.4844 134.606 83.6406 134.664 83.9531C134.742 84.2656 134.664 84.6562 134.43 85.125C134.195 85.5938 133.815 86.0332 133.287 86.4434C132.057 87.4199 130.709 87.8496 129.244 87.7324C127.779 87.6348 126.588 87.3418 125.67 86.8535C124.772 86.3457 123.961 85.7109 123.238 84.9492C122.535 84.1875 121.9 83.3379 121.334 82.4004C120.787 81.4629 120.279 80.5059 119.811 79.5293L118.492 76.6582C118.082 75.7207 117.701 74.9199 117.35 74.2559C116.998 73.5723 116.695 72.957 116.441 72.4102C116.188 71.8438 115.904 71.3359 115.592 70.8867C114.928 69.8711 114.078 69.2266 113.043 68.9531C108.941 79.5 104.772 85.5156 100.533 87C100.182 87.1367 99.8204 87.2051 99.4493 87.2051C99.0977 87.2051 98.7755 87.1367 98.4825 87C98.1895 86.8828 97.9454 86.7266 97.7501 86.5312C97.3399 86.1602 97.1348 85.75 97.1348 85.3008C97.1348 84.8516 97.2813 84.5195 97.5743 84.3047C100.504 82.1758 103.756 75.9648 107.33 65.6719L109.088 60.7207C111.1 55.0176 112.799 51.502 114.186 50.1738C114.674 49.8027 115.182 49.6172 115.709 49.6172C116.236 49.6172 116.695 49.7051 117.086 49.8809C117.477 50.0371 117.818 50.2422 118.111 50.4961C118.775 51.082 119.107 51.6777 119.107 52.2832C119.107 52.8887 118.971 53.4355 118.697 53.9238C118.443 54.3926 118.15 55.0566 117.818 55.916C116.861 58.416 116.119 60.418 115.592 61.9219L114.098 66.1406C118.258 65.5938 121.94 63.9629 125.143 61.248C128.522 58.3965 130.211 55.1641 130.211 51.5508ZM139.85 73.6406C139.928 71.2969 140.289 68.8359 140.934 66.2578C141.598 63.6602 142.496 61.1602 143.629 58.7578C144.762 56.3555 146.1 54.0996 147.643 51.9902C149.205 49.8809 150.914 48.0449 152.77 46.4824C156.754 43.123 160.934 41.4434 165.309 41.4434C170.621 41.4434 174.088 43.8555 175.709 48.6797C176.295 50.3789 176.549 52.4785 176.471 54.9785C176.412 57.459 176.031 59.9883 175.328 62.5664C174.645 65.1445 173.707 67.6348 172.516 70.0371C171.344 72.4395 169.967 74.6953 168.385 76.8047C166.803 78.8945 165.084 80.7109 163.229 82.2539C159.264 85.6133 155.299 87.293 151.334 87.293C147.779 87.293 144.957 86.1309 142.867 83.8066C140.738 81.4238 139.732 78.0352 139.85 73.6406ZM149.4 62.3906C148.404 64.6562 147.594 66.9707 146.969 69.334C146.363 71.6973 146.031 73.709 145.973 75.3691C145.934 77.0098 146.031 78.2891 146.266 79.207C146.52 80.1055 146.871 80.8672 147.32 81.4922C148.258 82.8203 149.459 83.4844 150.924 83.4844C152.408 83.4844 153.893 83.0059 155.377 82.0488C156.861 81.0918 158.297 79.8125 159.684 78.2109C161.09 76.6094 162.418 74.7637 163.668 72.6738C164.938 70.584 166.051 68.4062 167.008 66.1406C169.781 59.5586 170.797 54.1289 170.055 49.8516C169.547 46.8828 167.926 45.3984 165.191 45.3984C162.691 45.3984 159.908 47.0977 156.842 50.4961C153.951 53.6602 151.471 57.625 149.4 62.3906ZM205.738 79.3242C205.738 81.1992 206.432 82.1367 207.818 82.1367C208.639 82.1367 209.381 81.9609 210.045 81.6094C210.729 81.2578 211.168 81.082 211.363 81.082C211.773 81.082 211.979 81.2969 211.979 81.7266C211.979 83.4453 211.061 84.8906 209.225 86.0625C207.975 86.8828 206.783 87.293 205.65 87.293C204.518 87.293 203.6 87.166 202.897 86.9121C202.213 86.6387 201.617 86.2188 201.109 85.6523C200.035 84.4805 199.498 82.7324 199.498 80.4082C199.498 78.5723 199.84 76.4434 200.523 74.0215C201.207 71.5996 201.705 69.8809 202.018 68.8652L198.971 73.4941C192.662 82.6934 187.34 87.293 183.004 87.293C180.055 87.293 178.111 86.0625 177.174 83.6016C176.881 82.8008 176.734 82.0977 176.734 81.4922V80.3789C176.734 77.918 178.111 73.4062 180.865 66.8438L186.959 52.6641C188.131 49.8516 188.717 48.1133 188.717 47.4492C188.717 46.7852 188.6 46.2871 188.365 45.9551C188.131 45.623 187.867 45.3594 187.574 45.1641L186.783 44.5781C186.549 44.4219 186.432 44.1875 186.432 43.875C186.432 43.5625 186.588 43.25 186.9 42.9375C187.213 42.625 187.623 42.3516 188.131 42.1172C189.147 41.668 190.143 41.4434 191.119 41.4434C192.115 41.4434 192.877 41.5508 193.404 41.7656C193.951 41.9609 194.4 42.2148 194.752 42.5273C195.436 43.1719 195.777 43.9531 195.777 44.8711C195.777 45.7695 195.602 46.834 195.25 48.0645C194.918 49.2949 194.469 50.6426 193.902 52.1074C193.356 53.5527 192.721 55.0859 191.998 56.707L187.545 66.4922C184.713 72.7227 183.297 76.8438 183.297 78.8555V79.2949C183.297 81.1504 184 82.0781 185.406 82.0781C187.984 82.0781 191.334 78.8457 195.455 72.3809C196.686 70.4668 197.916 68.4453 199.147 66.3164L202.721 59.7539C207.838 49.8516 210.787 44.207 211.568 42.8203C211.959 42.1172 212.516 41.7656 213.238 41.7656C213.961 41.7656 214.566 41.873 215.055 42.0879C215.543 42.2832 215.963 42.5469 216.315 42.8789C217.135 43.6602 217.34 44.4414 216.93 45.2227C215.074 48.7578 212.818 54.4121 210.162 62.1855C207.213 70.7402 205.738 76.4531 205.738 79.3242ZM248.746 46.9512C248.18 47.3613 247.516 47.6738 246.754 47.8887C246.012 48.084 245.006 48.1816 243.736 48.1816C242.486 48.1816 240.856 48.0938 238.844 47.918C238.375 49.1875 237.897 50.6719 237.408 52.3711L234.039 63.8555C229.879 77.6055 225.445 85.3203 220.738 87C220.406 87.1367 219.977 87.2051 219.449 87.2051C218.941 87.2051 218.522 87.1367 218.19 87C217.877 86.8828 217.613 86.7266 217.398 86.5312C216.969 86.1797 216.754 85.8281 216.754 85.4766C216.754 85.125 216.842 84.8906 217.018 84.7734L217.779 84.3047C220.592 82.4688 223.17 77.5859 225.514 69.6562L227.623 62.5078C229.518 56.082 231.285 51.0332 232.926 47.3613C231.383 47.2246 230.211 47.1562 229.41 47.1562C227.106 47.1562 225.445 47.4785 224.43 48.123C223.434 48.7676 222.731 49.4707 222.32 50.2324C221.93 50.9746 221.725 51.4922 221.705 51.7852C221.647 52.332 221.471 52.6836 221.178 52.8398C220.885 52.9766 220.523 53.0449 220.094 53.0449C219.684 53.0449 219.254 52.8984 218.805 52.6055C218.356 52.293 217.984 51.9023 217.691 51.4336C217.066 50.4766 216.822 49.4023 216.959 48.2109C217.096 47 217.486 45.9648 218.131 45.1055C218.795 44.2266 219.576 43.5137 220.475 42.9668C222.135 41.9512 223.883 41.4434 225.719 41.4434C227.574 41.4434 229.322 41.541 230.963 41.7363C232.623 41.9121 234.273 42.1172 235.914 42.3516C240.27 42.9375 243.043 43.2305 244.234 43.2305C245.426 43.2305 246.305 43.1621 246.871 43.0254C247.457 42.8887 247.955 42.6836 248.365 42.4102C248.775 42.1367 249.059 41.9609 249.215 41.8828C249.391 41.7852 249.664 41.7363 250.035 41.7363C250.621 41.7363 250.875 42.1855 250.797 43.084C250.719 43.9629 250.504 44.7246 250.152 45.3691C249.801 45.9941 249.332 46.5215 248.746 46.9512ZM241.1 84.3047C244.479 81.8242 247.887 75.4375 251.324 65.1445C253.316 59.1484 254.703 53.7383 255.484 48.9141C255.699 47.5664 255.807 46.5312 255.807 45.8086C255.006 45.8477 254.264 46.0625 253.58 46.4531L251.383 47.7129C250.777 48.0449 249.967 47.7812 248.951 46.9219C247.955 46.0625 247.496 45.3398 247.574 44.7539C247.672 44.1484 248.004 43.6602 248.57 43.2891C249.156 42.8984 249.83 42.5664 250.592 42.293C252.193 41.7266 253.531 41.4434 254.606 41.4434C255.699 41.4434 256.656 41.5312 257.477 41.707C258.316 41.8633 259.078 42.1367 259.762 42.5273C261.324 43.4258 262.125 44.7148 262.164 46.3945C262.242 49.3047 261.256 54.2461 259.205 61.2188C255.963 72.2539 252.154 80.0078 247.779 84.4805C246.588 85.7109 245.348 86.5508 244.059 87C243.707 87.1367 243.346 87.2051 242.975 87.2051C242.623 87.2051 242.301 87.1367 242.008 87C241.715 86.8828 241.471 86.7266 241.275 86.5312C240.865 86.1602 240.66 85.75 240.66 85.3008C240.66 84.8516 240.807 84.5195 241.1 84.3047ZM292.398 83.9824L292.428 84.9492C292.428 85.6133 292.242 86.1309 291.871 86.502C291.5 86.873 290.992 87.0586 290.348 87.0586C289.723 87.0586 289.02 86.7949 288.238 86.2676C287.457 85.7402 286.627 84.8516 285.748 83.6016C284.869 82.3516 284 80.6523 283.141 78.5039C282.281 76.3359 281.568 74.0312 281.002 71.5898C279.869 66.7461 279.303 61.6777 279.303 56.3848C279.303 53.748 279.449 51.2383 279.742 48.8555L279.361 49.3828C275.729 54.5781 272.506 62.3711 269.693 72.7617C268.365 77.6055 267.447 82.166 266.94 86.4434C266.861 87.0293 266.383 87.3223 265.504 87.3223C264.117 87.3223 263.111 86.6094 262.486 85.1836C262.272 84.6758 262.164 83.9629 262.164 83.0449C262.164 82.127 262.33 80.7891 262.662 79.0312C263.014 77.2539 263.492 75.3008 264.098 73.1719C264.703 71.0234 265.436 68.7676 266.295 66.4043C267.154 64.0215 268.092 61.668 269.107 59.3438C270.143 57.0195 271.246 54.8027 272.418 52.6934C273.609 50.584 274.83 48.7188 276.08 47.0977C278.854 43.543 281.451 41.707 283.873 41.5898C285.201 41.5117 286.041 41.7168 286.393 42.2051C286.783 42.752 286.822 43.6895 286.51 45.0176C285.943 47.3027 285.66 49.5684 285.66 51.8145C285.66 54.0605 285.709 55.9551 285.807 57.498C285.924 59.041 286.08 60.5938 286.275 62.1562C286.471 63.6992 286.705 65.2324 286.979 66.7559C287.272 68.2793 287.584 69.7344 287.916 71.1211C288.678 74.168 289.449 76.5703 290.231 78.3281C290.856 76.707 291.539 75.0859 292.281 73.4648L296.647 63.8555C299.068 58.4258 300.279 54.0703 300.279 50.7891C300.279 47.7031 299.645 45.8379 298.375 45.1934C298.063 45.0566 297.867 44.8027 297.789 44.4316C297.731 44.0605 297.799 43.6895 297.994 43.3184C298.209 42.9473 298.482 42.625 298.815 42.3516C299.596 41.707 300.455 41.3848 301.393 41.3848C302.35 41.3848 303.229 41.5898 304.029 42C304.83 42.3906 305.494 42.918 306.022 43.582C307.018 44.8516 307.516 46.3555 307.516 48.0938C307.516 49.8125 307.213 51.5996 306.607 53.4551C306.022 55.291 305.26 57.2148 304.322 59.2266C303.385 61.2188 302.34 63.25 301.188 65.3203L297.818 71.4727C295.143 76.3555 293.404 80.0664 292.604 82.6055C292.467 82.9961 292.398 83.4551 292.398 83.9824ZM334.059 47.9473C334.059 46.3066 333.082 45.4863 331.129 45.4863C327.398 45.4863 324.01 47.2148 320.963 50.6719C319.166 52.7031 317.906 54.9004 317.184 57.2637C316.832 58.416 316.656 59.4316 316.656 60.3105C316.656 61.1895 316.754 61.8926 316.949 62.4199C317.164 62.9277 317.428 63.3477 317.74 63.6797C318.404 64.3828 319.176 64.6562 320.055 64.5C321.012 64.1094 321.852 63.9141 322.574 63.9141C323.316 63.9141 323.902 64.0117 324.332 64.207C324.781 64.3828 325.143 64.6074 325.416 64.8809C325.982 65.4277 326.266 65.9551 326.266 66.4629C326.266 67.459 325.934 67.9766 325.27 68.0156C324.254 68.1133 323.19 68.3965 322.076 68.8652C320.963 69.334 319.84 69.9492 318.707 70.7109C317.574 71.4531 316.568 72.293 315.69 73.2305C313.678 75.3789 312.672 77.5371 312.672 79.7051C312.672 80.7402 312.916 81.5215 313.404 82.0488C314.225 82.9668 315.201 83.4258 316.334 83.4258C317.467 83.4258 318.57 83.2109 319.645 82.7812C320.738 82.332 321.725 81.7949 322.604 81.1699C323.932 80.2129 325.221 78.9922 326.471 77.5078C327.096 76.7656 327.643 76.3945 328.111 76.3945C328.58 76.3945 328.932 76.6777 329.166 77.2441C329.42 77.791 329.547 78.377 329.547 79.002C329.547 80.291 329.303 81.248 328.815 81.873C328.326 82.4785 327.711 83.0938 326.969 83.7188C326.246 84.3242 325.377 84.8906 324.361 85.418C321.92 86.668 319.303 87.293 316.51 87.293C311.803 87.293 308.58 85.75 306.842 82.6641C306.217 81.5117 305.904 80.3301 305.904 79.1191C305.904 77.9082 306.08 76.7852 306.432 75.75C306.803 74.7148 307.272 73.7578 307.838 72.8789C308.404 71.9805 309.039 71.1797 309.742 70.4766C310.445 69.7539 311.139 69.1289 311.822 68.6016C313.17 67.5469 314.283 66.9512 315.162 66.8145C312.955 65.9355 311.471 64.2266 310.709 61.6875C310.475 60.8672 310.357 59.8711 310.357 58.6992C310.357 57.5273 310.582 56.2383 311.031 54.832C311.481 53.4062 312.115 52.0488 312.936 50.7598C313.756 49.4512 314.732 48.2305 315.865 47.0977C316.998 45.9648 318.248 44.9785 319.615 44.1387C322.565 42.3418 325.67 41.4434 328.932 41.4434C332.35 41.4434 334.898 42.293 336.578 43.9922C337.926 45.3594 338.6 47.1074 338.6 49.2363C338.6 51.6582 337.584 54.1094 335.553 56.5898C334.322 58.0742 333.209 59.0801 332.213 59.6074C331.236 60.1348 330.465 60.4277 329.898 60.4863C329.352 60.5254 328.834 60.457 328.346 60.2812C327.877 60.0859 327.467 59.832 327.115 59.5195C326.315 58.7969 325.914 58.1426 325.914 57.5566C325.914 56.834 326.168 56.2773 326.676 55.8867L329.313 54.0117C332.477 51.6875 334.059 49.666 334.059 47.9473Z" fill="white"/>
</svg>
